<mxfile host="app.diagrams.net" agent="Mozilla/5.0 (Windows NT 10.0; Win64; x64) AppleWebKit/537.36 (KHTML, like Gecko) Chrome/126.0.0.0 YaBrowser/24.7.0.0 Safari/537.36" version="24.7.12">
  <diagram name="Page-1" id="L2NgdER6481ezlp8ErZE">
    <mxGraphModel dx="2074" dy="1143" grid="1" gridSize="10" guides="1" tooltips="1" connect="1" arrows="1" fold="1" page="1" pageScale="1" pageWidth="827" pageHeight="1169" math="0" shadow="0">
      <root>
        <mxCell id="0" />
        <mxCell id="1" parent="0" />
        <mxCell id="TgObtcYRpW6-FjgoN-9W-39" value="" style="group;fontSize=10;strokeWidth=3;" vertex="1" connectable="0" parent="1">
          <mxGeometry x="80" y="40" width="680" height="680" as="geometry" />
        </mxCell>
        <mxCell id="TgObtcYRpW6-FjgoN-9W-1" value="&lt;b style=&quot;font-size: 40px;&quot;&gt;&lt;font face=&quot;Times New Roman&quot; style=&quot;font-size: 40px;&quot;&gt;&lt;i style=&quot;font-size: 40px;&quot;&gt;6&lt;/i&gt;&lt;/font&gt;&lt;/b&gt;" style="ellipse;whiteSpace=wrap;html=1;aspect=fixed;fillColor=#f8cecc;strokeColor=#b85450;labelBackgroundColor=none;fontColor=#b85450;fontSize=40;strokeWidth=3;" vertex="1" parent="TgObtcYRpW6-FjgoN-9W-39">
          <mxGeometry y="291.4285714285714" width="97.14285714285714" height="97.14285714285714" as="geometry" />
        </mxCell>
        <mxCell id="TgObtcYRpW6-FjgoN-9W-2" value="&lt;b style=&quot;font-size: 40px;&quot;&gt;&lt;font face=&quot;Times New Roman&quot; style=&quot;font-size: 40px;&quot;&gt;&lt;i style=&quot;font-size: 40px;&quot;&gt;7&lt;/i&gt;&lt;/font&gt;&lt;/b&gt;" style="ellipse;whiteSpace=wrap;html=1;aspect=fixed;fillColor=#f8cecc;strokeColor=#b85450;labelBackgroundColor=none;fontColor=#b85450;fontSize=40;strokeWidth=3;" vertex="1" parent="TgObtcYRpW6-FjgoN-9W-39">
          <mxGeometry x="97.14285714285714" y="97.14285714285714" width="97.14285714285714" height="97.14285714285714" as="geometry" />
        </mxCell>
        <mxCell id="TgObtcYRpW6-FjgoN-9W-3" value="&lt;b style=&quot;font-size: 40px;&quot;&gt;&lt;font face=&quot;Times New Roman&quot; style=&quot;font-size: 40px;&quot;&gt;&lt;i style=&quot;font-size: 40px;&quot;&gt;1&lt;/i&gt;&lt;/font&gt;&lt;/b&gt;" style="ellipse;whiteSpace=wrap;html=1;aspect=fixed;fillColor=#f8cecc;strokeColor=#b85450;labelBackgroundColor=none;fontColor=#b85450;rotation=0;fontSize=40;strokeWidth=3;" vertex="1" parent="TgObtcYRpW6-FjgoN-9W-39">
          <mxGeometry x="485.71428571428567" y="97.14285714285714" width="97.14285714285714" height="97.14285714285714" as="geometry" />
        </mxCell>
        <mxCell id="TgObtcYRpW6-FjgoN-9W-4" value="&lt;b style=&quot;font-size: 40px;&quot;&gt;&lt;font face=&quot;Times New Roman&quot; style=&quot;font-size: 40px;&quot;&gt;&lt;i style=&quot;font-size: 40px;&quot;&gt;2&lt;/i&gt;&lt;/font&gt;&lt;/b&gt;" style="ellipse;whiteSpace=wrap;html=1;aspect=fixed;fillColor=#f8cecc;strokeColor=#b85450;labelBackgroundColor=none;fontColor=#b85450;fontSize=40;strokeWidth=3;" vertex="1" parent="TgObtcYRpW6-FjgoN-9W-39">
          <mxGeometry x="582.8571428571428" y="291.4285714285714" width="97.14285714285714" height="97.14285714285714" as="geometry" />
        </mxCell>
        <mxCell id="TgObtcYRpW6-FjgoN-9W-5" value="&lt;b style=&quot;font-size: 40px;&quot;&gt;&lt;font face=&quot;Times New Roman&quot; style=&quot;font-size: 40px;&quot;&gt;&lt;i style=&quot;font-size: 40px;&quot;&gt;5&lt;/i&gt;&lt;/font&gt;&lt;/b&gt;" style="ellipse;whiteSpace=wrap;html=1;aspect=fixed;fillColor=#f8cecc;strokeColor=#b85450;labelBackgroundColor=none;fontColor=#b85450;fontSize=40;strokeWidth=3;" vertex="1" parent="TgObtcYRpW6-FjgoN-9W-39">
          <mxGeometry x="97.14285714285714" y="485.71428571428567" width="97.14285714285714" height="97.14285714285714" as="geometry" />
        </mxCell>
        <mxCell id="TgObtcYRpW6-FjgoN-9W-6" value="&lt;b style=&quot;font-size: 40px;&quot;&gt;&lt;font face=&quot;Times New Roman&quot; style=&quot;font-size: 40px;&quot;&gt;&lt;i style=&quot;font-size: 40px;&quot;&gt;3&lt;/i&gt;&lt;/font&gt;&lt;/b&gt;" style="ellipse;whiteSpace=wrap;html=1;aspect=fixed;fillColor=#f8cecc;strokeColor=#b85450;labelBackgroundColor=none;fontColor=#b85450;fontSize=40;strokeWidth=3;" vertex="1" parent="TgObtcYRpW6-FjgoN-9W-39">
          <mxGeometry x="485.71428571428567" y="485.71428571428567" width="97.14285714285714" height="97.14285714285714" as="geometry" />
        </mxCell>
        <mxCell id="TgObtcYRpW6-FjgoN-9W-7" value="&lt;b style=&quot;font-size: 40px;&quot;&gt;&lt;font face=&quot;Times New Roman&quot; style=&quot;font-size: 40px;&quot;&gt;&lt;i style=&quot;font-size: 40px;&quot;&gt;0&lt;/i&gt;&lt;/font&gt;&lt;/b&gt;" style="ellipse;whiteSpace=wrap;html=1;aspect=fixed;fillColor=#f8cecc;strokeColor=#b85450;labelBackgroundColor=none;fontColor=#b85450;fontSize=40;strokeWidth=3;" vertex="1" parent="TgObtcYRpW6-FjgoN-9W-39">
          <mxGeometry x="291.4285714285714" width="97.14285714285714" height="97.14285714285714" as="geometry" />
        </mxCell>
        <mxCell id="TgObtcYRpW6-FjgoN-9W-8" value="&lt;b style=&quot;font-size: 40px;&quot;&gt;&lt;font face=&quot;Times New Roman&quot; style=&quot;font-size: 40px;&quot;&gt;&lt;i style=&quot;font-size: 40px;&quot;&gt;4&lt;/i&gt;&lt;/font&gt;&lt;/b&gt;" style="ellipse;whiteSpace=wrap;html=1;aspect=fixed;fillColor=#f8cecc;strokeColor=#b85450;labelBackgroundColor=none;fontColor=#b85450;fontSize=40;strokeWidth=3;" vertex="1" parent="TgObtcYRpW6-FjgoN-9W-39">
          <mxGeometry x="291.4285714285714" y="582.8571428571428" width="97.14285714285714" height="97.14285714285714" as="geometry" />
        </mxCell>
        <mxCell id="TgObtcYRpW6-FjgoN-9W-9" value="" style="endArrow=none;html=1;rounded=0;entryX=0.5;entryY=1;entryDx=0;entryDy=0;exitX=0.5;exitY=0;exitDx=0;exitDy=0;fillColor=#f8cecc;strokeColor=#b85450;strokeWidth=3;" edge="1" parent="TgObtcYRpW6-FjgoN-9W-39" source="TgObtcYRpW6-FjgoN-9W-8" target="TgObtcYRpW6-FjgoN-9W-7">
          <mxGeometry width="50" height="50" relative="1" as="geometry">
            <mxPoint x="315.71428571428567" y="291.4285714285714" as="sourcePoint" />
            <mxPoint x="437.1428571428571" y="170" as="targetPoint" />
          </mxGeometry>
        </mxCell>
        <mxCell id="TgObtcYRpW6-FjgoN-9W-10" value="" style="endArrow=none;html=1;rounded=0;entryX=0.5;entryY=1;entryDx=0;entryDy=0;fillColor=#f8cecc;strokeColor=#b85450;exitX=0;exitY=0;exitDx=0;exitDy=0;strokeWidth=3;" edge="1" parent="TgObtcYRpW6-FjgoN-9W-39" source="TgObtcYRpW6-FjgoN-9W-6" target="TgObtcYRpW6-FjgoN-9W-7">
          <mxGeometry width="50" height="50" relative="1" as="geometry">
            <mxPoint x="485.71428571428567" y="437.1428571428571" as="sourcePoint" />
            <mxPoint x="364.2857142857143" y="121.42857142857142" as="targetPoint" />
          </mxGeometry>
        </mxCell>
        <mxCell id="TgObtcYRpW6-FjgoN-9W-12" value="" style="endArrow=none;html=1;rounded=0;entryX=0.5;entryY=1;entryDx=0;entryDy=0;exitX=1;exitY=0;exitDx=0;exitDy=0;fillColor=#f8cecc;strokeColor=#b85450;strokeWidth=3;" edge="1" parent="TgObtcYRpW6-FjgoN-9W-39" source="TgObtcYRpW6-FjgoN-9W-5" target="TgObtcYRpW6-FjgoN-9W-7">
          <mxGeometry width="50" height="50" relative="1" as="geometry">
            <mxPoint x="242.85714285714283" y="582.8571428571428" as="sourcePoint" />
            <mxPoint x="242.85714285714283" y="97.14285714285714" as="targetPoint" />
          </mxGeometry>
        </mxCell>
        <mxCell id="TgObtcYRpW6-FjgoN-9W-13" value="" style="endArrow=none;html=1;rounded=0;exitX=1;exitY=0.5;exitDx=0;exitDy=0;fillColor=#f8cecc;strokeColor=#b85450;strokeWidth=3;" edge="1" parent="TgObtcYRpW6-FjgoN-9W-39" source="TgObtcYRpW6-FjgoN-9W-1">
          <mxGeometry width="50" height="50" relative="1" as="geometry">
            <mxPoint x="412.85714285714283" y="655.7142857142857" as="sourcePoint" />
            <mxPoint x="340" y="97.14285714285714" as="targetPoint" />
          </mxGeometry>
        </mxCell>
        <mxCell id="TgObtcYRpW6-FjgoN-9W-14" value="" style="endArrow=none;html=1;rounded=0;exitX=0;exitY=0.5;exitDx=0;exitDy=0;fillColor=#f8cecc;strokeColor=#b85450;entryX=0.5;entryY=1;entryDx=0;entryDy=0;strokeWidth=3;" edge="1" parent="TgObtcYRpW6-FjgoN-9W-39" source="TgObtcYRpW6-FjgoN-9W-4" target="TgObtcYRpW6-FjgoN-9W-7">
          <mxGeometry width="50" height="50" relative="1" as="geometry">
            <mxPoint x="437.1428571428571" y="680" as="sourcePoint" />
            <mxPoint x="340" y="97.14285714285714" as="targetPoint" />
          </mxGeometry>
        </mxCell>
        <mxCell id="TgObtcYRpW6-FjgoN-9W-15" value="" style="endArrow=none;html=1;rounded=0;entryX=0.5;entryY=1;entryDx=0;entryDy=0;exitX=0;exitY=1;exitDx=0;exitDy=0;fillColor=#f8cecc;strokeColor=#b85450;strokeWidth=3;" edge="1" parent="TgObtcYRpW6-FjgoN-9W-39" source="TgObtcYRpW6-FjgoN-9W-3" target="TgObtcYRpW6-FjgoN-9W-7">
          <mxGeometry width="50" height="50" relative="1" as="geometry">
            <mxPoint x="461.4285714285714" y="704.2857142857142" as="sourcePoint" />
            <mxPoint x="461.4285714285714" y="218.57142857142856" as="targetPoint" />
          </mxGeometry>
        </mxCell>
        <mxCell id="TgObtcYRpW6-FjgoN-9W-16" value="" style="endArrow=none;html=1;rounded=0;entryX=0.5;entryY=1;entryDx=0;entryDy=0;exitX=1;exitY=1;exitDx=0;exitDy=0;fillColor=#f8cecc;strokeColor=#b85450;strokeWidth=3;" edge="1" parent="TgObtcYRpW6-FjgoN-9W-39" source="TgObtcYRpW6-FjgoN-9W-2" target="TgObtcYRpW6-FjgoN-9W-7">
          <mxGeometry width="50" height="50" relative="1" as="geometry">
            <mxPoint x="485.71428571428567" y="728.5714285714286" as="sourcePoint" />
            <mxPoint x="485.71428571428567" y="242.85714285714283" as="targetPoint" />
          </mxGeometry>
        </mxCell>
        <mxCell id="TgObtcYRpW6-FjgoN-9W-17" value="" style="endArrow=none;html=1;rounded=0;entryX=0;entryY=1;entryDx=0;entryDy=0;exitX=1;exitY=1;exitDx=0;exitDy=0;fillColor=#f8cecc;strokeColor=#b85450;strokeWidth=3;" edge="1" parent="TgObtcYRpW6-FjgoN-9W-39" source="TgObtcYRpW6-FjgoN-9W-2" target="TgObtcYRpW6-FjgoN-9W-3">
          <mxGeometry width="50" height="50" relative="1" as="geometry">
            <mxPoint x="509.99999999999994" y="752.8571428571428" as="sourcePoint" />
            <mxPoint x="509.99999999999994" y="267.1428571428571" as="targetPoint" />
          </mxGeometry>
        </mxCell>
        <mxCell id="TgObtcYRpW6-FjgoN-9W-18" value="" style="endArrow=none;html=1;rounded=0;entryX=0;entryY=1;entryDx=0;entryDy=0;exitX=1;exitY=0.5;exitDx=0;exitDy=0;fillColor=#f8cecc;strokeColor=#b85450;strokeWidth=3;" edge="1" parent="TgObtcYRpW6-FjgoN-9W-39" source="TgObtcYRpW6-FjgoN-9W-1" target="TgObtcYRpW6-FjgoN-9W-3">
          <mxGeometry width="50" height="50" relative="1" as="geometry">
            <mxPoint x="534.2857142857142" y="777.1428571428571" as="sourcePoint" />
            <mxPoint x="534.2857142857142" y="291.4285714285714" as="targetPoint" />
          </mxGeometry>
        </mxCell>
        <mxCell id="TgObtcYRpW6-FjgoN-9W-19" value="" style="endArrow=none;html=1;rounded=0;entryX=0;entryY=1;entryDx=0;entryDy=0;exitX=1;exitY=0;exitDx=0;exitDy=0;fillColor=#f8cecc;strokeColor=#b85450;strokeWidth=3;" edge="1" parent="TgObtcYRpW6-FjgoN-9W-39" source="TgObtcYRpW6-FjgoN-9W-5" target="TgObtcYRpW6-FjgoN-9W-3">
          <mxGeometry width="50" height="50" relative="1" as="geometry">
            <mxPoint x="558.5714285714286" y="801.4285714285713" as="sourcePoint" />
            <mxPoint x="558.5714285714286" y="315.71428571428567" as="targetPoint" />
          </mxGeometry>
        </mxCell>
        <mxCell id="TgObtcYRpW6-FjgoN-9W-20" value="" style="endArrow=none;html=1;rounded=0;exitX=0.5;exitY=0;exitDx=0;exitDy=0;fillColor=#f8cecc;strokeColor=#b85450;entryX=0;entryY=1;entryDx=0;entryDy=0;strokeWidth=3;" edge="1" parent="TgObtcYRpW6-FjgoN-9W-39" source="TgObtcYRpW6-FjgoN-9W-8" target="TgObtcYRpW6-FjgoN-9W-3">
          <mxGeometry width="50" height="50" relative="1" as="geometry">
            <mxPoint x="582.8571428571428" y="825.7142857142857" as="sourcePoint" />
            <mxPoint x="461.4285714285714" y="145.7142857142857" as="targetPoint" />
          </mxGeometry>
        </mxCell>
        <mxCell id="TgObtcYRpW6-FjgoN-9W-21" value="" style="endArrow=none;html=1;rounded=0;exitX=0;exitY=0;exitDx=0;exitDy=0;fillColor=#f8cecc;strokeColor=#b85450;entryX=0;entryY=1;entryDx=0;entryDy=0;strokeWidth=3;" edge="1" parent="TgObtcYRpW6-FjgoN-9W-39" source="TgObtcYRpW6-FjgoN-9W-6" target="TgObtcYRpW6-FjgoN-9W-3">
          <mxGeometry width="50" height="50" relative="1" as="geometry">
            <mxPoint x="607.1428571428571" y="849.9999999999999" as="sourcePoint" />
            <mxPoint x="485.71428571428567" y="145.7142857142857" as="targetPoint" />
          </mxGeometry>
        </mxCell>
        <mxCell id="TgObtcYRpW6-FjgoN-9W-22" value="" style="endArrow=none;html=1;rounded=0;fillColor=#f8cecc;strokeColor=#b85450;exitX=0;exitY=0.5;exitDx=0;exitDy=0;entryX=0;entryY=1;entryDx=0;entryDy=0;strokeWidth=3;" edge="1" parent="TgObtcYRpW6-FjgoN-9W-39" source="TgObtcYRpW6-FjgoN-9W-4" target="TgObtcYRpW6-FjgoN-9W-3">
          <mxGeometry width="50" height="50" relative="1" as="geometry">
            <mxPoint x="607.1428571428571" y="485.71428571428567" as="sourcePoint" />
            <mxPoint x="655.7142857142857" y="170" as="targetPoint" />
          </mxGeometry>
        </mxCell>
        <mxCell id="TgObtcYRpW6-FjgoN-9W-23" value="" style="endArrow=none;html=1;rounded=0;entryX=0;entryY=0.5;entryDx=0;entryDy=0;fillColor=#f8cecc;strokeColor=#b85450;exitX=1;exitY=1;exitDx=0;exitDy=0;strokeWidth=3;" edge="1" parent="TgObtcYRpW6-FjgoN-9W-39" source="TgObtcYRpW6-FjgoN-9W-2" target="TgObtcYRpW6-FjgoN-9W-4">
          <mxGeometry width="50" height="50" relative="1" as="geometry">
            <mxPoint x="582.8571428571428" y="680" as="sourcePoint" />
            <mxPoint x="655.7142857142857" y="412.85714285714283" as="targetPoint" />
          </mxGeometry>
        </mxCell>
        <mxCell id="TgObtcYRpW6-FjgoN-9W-24" value="" style="endArrow=none;html=1;rounded=0;entryX=0;entryY=0.5;entryDx=0;entryDy=0;fillColor=#f8cecc;strokeColor=#b85450;exitX=1;exitY=0.5;exitDx=0;exitDy=0;strokeWidth=3;" edge="1" parent="TgObtcYRpW6-FjgoN-9W-39" source="TgObtcYRpW6-FjgoN-9W-1" target="TgObtcYRpW6-FjgoN-9W-4">
          <mxGeometry width="50" height="50" relative="1" as="geometry">
            <mxPoint x="680" y="728.5714285714286" as="sourcePoint" />
            <mxPoint x="680" y="485.71428571428567" as="targetPoint" />
          </mxGeometry>
        </mxCell>
        <mxCell id="TgObtcYRpW6-FjgoN-9W-25" value="" style="endArrow=none;html=1;rounded=0;entryX=0;entryY=0.5;entryDx=0;entryDy=0;fillColor=#f8cecc;strokeColor=#b85450;exitX=1;exitY=0;exitDx=0;exitDy=0;strokeWidth=3;" edge="1" parent="TgObtcYRpW6-FjgoN-9W-39" source="TgObtcYRpW6-FjgoN-9W-5" target="TgObtcYRpW6-FjgoN-9W-4">
          <mxGeometry width="50" height="50" relative="1" as="geometry">
            <mxPoint x="704.2857142857142" y="704.2857142857142" as="sourcePoint" />
            <mxPoint x="704.2857142857142" y="461.4285714285714" as="targetPoint" />
          </mxGeometry>
        </mxCell>
        <mxCell id="TgObtcYRpW6-FjgoN-9W-26" value="" style="endArrow=none;html=1;rounded=0;entryX=0;entryY=0.5;entryDx=0;entryDy=0;fillColor=#f8cecc;strokeColor=#b85450;exitX=0.5;exitY=0;exitDx=0;exitDy=0;strokeWidth=3;" edge="1" parent="TgObtcYRpW6-FjgoN-9W-39" source="TgObtcYRpW6-FjgoN-9W-8" target="TgObtcYRpW6-FjgoN-9W-4">
          <mxGeometry width="50" height="50" relative="1" as="geometry">
            <mxPoint x="728.5714285714286" y="728.5714285714286" as="sourcePoint" />
            <mxPoint x="728.5714285714286" y="485.71428571428567" as="targetPoint" />
          </mxGeometry>
        </mxCell>
        <mxCell id="TgObtcYRpW6-FjgoN-9W-27" value="" style="endArrow=none;html=1;rounded=0;entryX=0;entryY=0.5;entryDx=0;entryDy=0;fillColor=#f8cecc;strokeColor=#b85450;exitX=0;exitY=0;exitDx=0;exitDy=0;strokeWidth=3;" edge="1" parent="TgObtcYRpW6-FjgoN-9W-39" source="TgObtcYRpW6-FjgoN-9W-6" target="TgObtcYRpW6-FjgoN-9W-4">
          <mxGeometry width="50" height="50" relative="1" as="geometry">
            <mxPoint x="752.8571428571428" y="752.8571428571428" as="sourcePoint" />
            <mxPoint x="752.8571428571428" y="509.99999999999994" as="targetPoint" />
          </mxGeometry>
        </mxCell>
        <mxCell id="TgObtcYRpW6-FjgoN-9W-28" value="" style="endArrow=none;html=1;rounded=0;entryX=0;entryY=0;entryDx=0;entryDy=0;fillColor=#f8cecc;strokeColor=#b85450;exitX=1;exitY=1;exitDx=0;exitDy=0;strokeWidth=3;" edge="1" parent="TgObtcYRpW6-FjgoN-9W-39" source="TgObtcYRpW6-FjgoN-9W-2" target="TgObtcYRpW6-FjgoN-9W-6">
          <mxGeometry width="50" height="50" relative="1" as="geometry">
            <mxPoint x="777.1428571428571" y="777.1428571428571" as="sourcePoint" />
            <mxPoint x="777.1428571428571" y="534.2857142857142" as="targetPoint" />
          </mxGeometry>
        </mxCell>
        <mxCell id="TgObtcYRpW6-FjgoN-9W-29" value="" style="endArrow=none;html=1;rounded=0;entryX=0;entryY=0;entryDx=0;entryDy=0;fillColor=#f8cecc;strokeColor=#b85450;exitX=1;exitY=0.5;exitDx=0;exitDy=0;strokeWidth=3;" edge="1" parent="TgObtcYRpW6-FjgoN-9W-39" source="TgObtcYRpW6-FjgoN-9W-1" target="TgObtcYRpW6-FjgoN-9W-6">
          <mxGeometry width="50" height="50" relative="1" as="geometry">
            <mxPoint x="801.4285714285713" y="801.4285714285713" as="sourcePoint" />
            <mxPoint x="801.4285714285713" y="558.5714285714286" as="targetPoint" />
          </mxGeometry>
        </mxCell>
        <mxCell id="TgObtcYRpW6-FjgoN-9W-30" value="" style="endArrow=none;html=1;rounded=0;entryX=0;entryY=0;entryDx=0;entryDy=0;fillColor=#f8cecc;strokeColor=#b85450;exitX=1;exitY=0;exitDx=0;exitDy=0;strokeWidth=3;" edge="1" parent="TgObtcYRpW6-FjgoN-9W-39" source="TgObtcYRpW6-FjgoN-9W-5" target="TgObtcYRpW6-FjgoN-9W-6">
          <mxGeometry width="50" height="50" relative="1" as="geometry">
            <mxPoint x="825.7142857142857" y="825.7142857142857" as="sourcePoint" />
            <mxPoint x="825.7142857142857" y="582.8571428571428" as="targetPoint" />
          </mxGeometry>
        </mxCell>
        <mxCell id="TgObtcYRpW6-FjgoN-9W-31" value="" style="endArrow=none;html=1;rounded=0;entryX=0;entryY=0;entryDx=0;entryDy=0;fillColor=#f8cecc;strokeColor=#b85450;exitX=0.5;exitY=0;exitDx=0;exitDy=0;strokeWidth=3;" edge="1" parent="TgObtcYRpW6-FjgoN-9W-39" source="TgObtcYRpW6-FjgoN-9W-8" target="TgObtcYRpW6-FjgoN-9W-6">
          <mxGeometry width="50" height="50" relative="1" as="geometry">
            <mxPoint x="849.9999999999999" y="849.9999999999999" as="sourcePoint" />
            <mxPoint x="849.9999999999999" y="607.1428571428571" as="targetPoint" />
          </mxGeometry>
        </mxCell>
        <mxCell id="TgObtcYRpW6-FjgoN-9W-32" value="" style="endArrow=none;html=1;rounded=0;entryX=0.5;entryY=0;entryDx=0;entryDy=0;fillColor=#f8cecc;strokeColor=#b85450;exitX=1;exitY=1;exitDx=0;exitDy=0;strokeWidth=3;" edge="1" parent="TgObtcYRpW6-FjgoN-9W-39" source="TgObtcYRpW6-FjgoN-9W-2" target="TgObtcYRpW6-FjgoN-9W-8">
          <mxGeometry width="50" height="50" relative="1" as="geometry">
            <mxPoint x="874.2857142857142" y="874.2857142857142" as="sourcePoint" />
            <mxPoint x="874.2857142857142" y="631.4285714285713" as="targetPoint" />
          </mxGeometry>
        </mxCell>
        <mxCell id="TgObtcYRpW6-FjgoN-9W-33" value="" style="endArrow=none;html=1;rounded=0;entryX=0.5;entryY=0;entryDx=0;entryDy=0;fillColor=#f8cecc;strokeColor=#b85450;exitX=1;exitY=0.5;exitDx=0;exitDy=0;strokeWidth=3;" edge="1" parent="TgObtcYRpW6-FjgoN-9W-39" source="TgObtcYRpW6-FjgoN-9W-1" target="TgObtcYRpW6-FjgoN-9W-8">
          <mxGeometry width="50" height="50" relative="1" as="geometry">
            <mxPoint x="24.285714285714285" y="461.4285714285714" as="sourcePoint" />
            <mxPoint x="509.99999999999994" y="631.4285714285713" as="targetPoint" />
          </mxGeometry>
        </mxCell>
        <mxCell id="TgObtcYRpW6-FjgoN-9W-34" value="" style="endArrow=none;html=1;rounded=0;entryX=0.5;entryY=0;entryDx=0;entryDy=0;fillColor=#f8cecc;strokeColor=#b85450;exitX=1;exitY=0;exitDx=0;exitDy=0;strokeWidth=3;" edge="1" parent="TgObtcYRpW6-FjgoN-9W-39" source="TgObtcYRpW6-FjgoN-9W-5" target="TgObtcYRpW6-FjgoN-9W-8">
          <mxGeometry width="50" height="50" relative="1" as="geometry">
            <mxPoint x="704.2857142857142" y="728.5714285714286" as="sourcePoint" />
            <mxPoint x="704.2857142857142" y="485.71428571428567" as="targetPoint" />
          </mxGeometry>
        </mxCell>
        <mxCell id="TgObtcYRpW6-FjgoN-9W-35" value="" style="endArrow=none;html=1;rounded=0;entryX=1;entryY=0;entryDx=0;entryDy=0;fillColor=#f8cecc;strokeColor=#b85450;exitX=1;exitY=1;exitDx=0;exitDy=0;strokeWidth=3;" edge="1" parent="TgObtcYRpW6-FjgoN-9W-39" source="TgObtcYRpW6-FjgoN-9W-2" target="TgObtcYRpW6-FjgoN-9W-5">
          <mxGeometry width="50" height="50" relative="1" as="geometry">
            <mxPoint x="655.7142857142857" y="777.1428571428571" as="sourcePoint" />
            <mxPoint x="655.7142857142857" y="534.2857142857142" as="targetPoint" />
          </mxGeometry>
        </mxCell>
        <mxCell id="TgObtcYRpW6-FjgoN-9W-36" value="" style="endArrow=none;html=1;rounded=0;entryX=1;entryY=0;entryDx=0;entryDy=0;fillColor=#f8cecc;strokeColor=#b85450;exitX=1;exitY=0.5;exitDx=0;exitDy=0;strokeWidth=3;" edge="1" parent="TgObtcYRpW6-FjgoN-9W-39" source="TgObtcYRpW6-FjgoN-9W-1" target="TgObtcYRpW6-FjgoN-9W-5">
          <mxGeometry width="50" height="50" relative="1" as="geometry">
            <mxPoint x="96.4628571428572" y="849.9999999999999" as="sourcePoint" />
            <mxPoint x="96.4628571428572" y="607.1428571428571" as="targetPoint" />
          </mxGeometry>
        </mxCell>
        <mxCell id="TgObtcYRpW6-FjgoN-9W-37" value="" style="endArrow=none;html=1;rounded=0;entryX=1;entryY=0.5;entryDx=0;entryDy=0;fillColor=#f8cecc;strokeColor=#b85450;exitX=1;exitY=1;exitDx=0;exitDy=0;strokeWidth=3;" edge="1" parent="TgObtcYRpW6-FjgoN-9W-39" source="TgObtcYRpW6-FjgoN-9W-2" target="TgObtcYRpW6-FjgoN-9W-1">
          <mxGeometry width="50" height="50" relative="1" as="geometry">
            <mxPoint x="170" y="194.28571428571428" as="sourcePoint" />
            <mxPoint x="-97.14285714285714" y="449.2857142857143" as="targetPoint" />
          </mxGeometry>
        </mxCell>
      </root>
    </mxGraphModel>
  </diagram>
</mxfile>
